<?xml version="1.0" encoding="UTF-8" standalone="no"?> <svg xmlns="http://www.w3.org/2000/svg" viewBox="0 0 64 64"><title>1</title><g id="Layer_14" data-name="Layer 14"><path d="M32,2C18.67,2,7.83,13.36,7.83,27.33c0,13.63,21.9,33.33,22.83,34.16a2,2,0,0,0,2.66,0c.93-.83,22.83-20.53,22.83-34.16C56.17,13.36,45.33,2,32,2Zm0,55.29C25.33,51,11.83,36.5,11.83,27.33,11.83,15.57,20.88,6,32,6s20.17,9.57,20.17,21.33C52.17,36.5,38.67,51,32,57.29Z"/><path d="M32,14.89A11.07,11.07,0,1,0,43.07,26,11.08,11.08,0,0,0,32,14.89ZM32,33A7.07,7.07,0,1,1,39.07,26,7.08,7.08,0,0,1,32,33Z"/></g></svg>