<?xml version="1.0" standalone="no"?>
<!DOCTYPE svg PUBLIC "-//W3C//DTD SVG 20010904//EN"
 "http://www.w3.org/TR/2001/REC-SVG-20010904/DTD/svg10.dtd">
<svg version="1.0" xmlns="http://www.w3.org/2000/svg"
 width="260.000000pt" height="260.000000pt" viewBox="0 0 260.000000 260.000000"
 preserveAspectRatio="xMidYMid meet">
<metadata>
Created by potrace 1.14, written by Peter Selinger 2001-2017
</metadata>
<g transform="translate(0.000000,260.000000) scale(0.100000,-0.100000)"
fill="#000000" stroke="none">
<path d="M1240 2588 c-30 -4 -78 -10 -107 -13 -28 -3 -73 -14 -100 -26 -26
-11 -55 -22 -63 -24 -9 -2 -39 -17 -68 -34 -29 -17 -57 -31 -62 -31 -6 0 -10
-4 -10 -9 0 -5 -8 -12 -18 -15 -22 -7 -159 -138 -193 -184 -13 -19 -29 -40
-36 -47 -7 -7 -9 -15 -6 -19 4 -3 1 -6 -6 -6 -7 0 -10 -4 -7 -9 4 -5 2 -11 -3
-13 -12 -4 -83 -159 -76 -166 3 -3 -1 -15 -8 -26 -7 -12 -14 -37 -16 -56 -2
-19 -6 -39 -11 -45 -9 -12 -14 -84 -12 -190 1 -109 44 -267 102 -375 13 -25
25 -54 27 -65 2 -10 7 -22 11 -25 4 -3 13 -16 20 -30 7 -14 33 -53 57 -85 25
-33 53 -71 62 -85 10 -13 26 -32 36 -42 9 -10 17 -21 17 -24 0 -5 62 -85 109
-141 11 -12 41 -52 67 -88 26 -36 51 -65 55 -65 4 0 10 -8 13 -17 3 -10 16
-29 29 -43 12 -14 45 -54 72 -90 27 -36 61 -79 75 -96 14 -17 41 -51 60 -75
19 -24 43 -51 53 -61 9 -10 17 -22 17 -27 0 -5 3 -11 8 -13 9 -4 143 -174 159
-202 6 -12 15 -20 20 -20 4 1 14 -1 21 -4 20 -7 63 38 53 56 -5 8 -5 29 -2 46
4 17 6 43 5 59 -2 15 -2 27 0 27 2 0 29 -9 61 -20 84 -29 129 -27 144 6 8 18
8 30 1 39 -5 6 -8 14 -5 16 2 3 -23 38 -55 79 -33 41 -64 80 -68 85 -30 38
-119 152 -127 164 -5 7 -31 34 -56 60 -25 25 -72 78 -104 116 -32 39 -62 72
-67 73 -4 2 -8 10 -8 18 0 7 -9 19 -20 26 -11 7 -20 17 -20 22 0 5 -18 26 -40
47 -22 21 -40 42 -40 46 0 4 -14 22 -30 40 -17 18 -30 37 -30 42 0 6 -3 11 -7
11 -5 0 -19 17 -33 37 -14 20 -30 41 -35 47 -15 16 -56 68 -85 106 -14 18 -29
38 -35 44 -5 6 -23 29 -39 51 -17 22 -33 42 -37 45 -8 6 -69 145 -76 173 -3
12 -4 33 -4 47 1 14 -4 46 -11 72 -9 36 -9 56 0 85 6 21 14 54 16 73 6 46 18
84 47 145 30 62 40 75 115 150 76 74 90 85 98 78 3 -4 6 -2 6 3 0 17 105 58
180 72 44 8 177 7 210 -1 168 -40 310 -151 382 -298 68 -138 76 -199 52 -384
-3 -27 -10 -54 -14 -60 -4 -5 -10 -23 -14 -39 -4 -15 -44 -87 -90 -160 -45
-72 -106 -171 -136 -221 -29 -49 -59 -97 -66 -105 -31 -38 -63 -108 -57 -128
3 -12 9 -19 14 -16 5 3 9 1 9 -5 0 -6 10 -21 23 -33 12 -13 51 -56 86 -95 36
-40 68 -70 73 -67 4 3 24 31 44 62 20 31 49 76 65 100 16 23 29 46 29 51 0 4
13 25 30 47 16 21 30 45 30 52 0 6 4 12 8 12 5 0 14 16 22 35 8 19 16 35 20
35 3 0 19 25 35 55 17 30 33 55 38 55 4 0 7 4 7 9 0 5 17 38 38 72 54 90 77
153 87 239 2 19 8 64 14 100 14 101 3 296 -19 325 -5 6 -10 24 -13 41 -7 46
-54 149 -105 228 -47 75 -196 230 -231 241 -12 3 -21 10 -21 14 0 8 -38 28
-54 29 -5 0 -12 4 -15 9 -9 14 -71 43 -91 43 -9 0 -20 4 -25 8 -16 13 -89 34
-131 37 -22 2 -39 4 -39 5 0 11 -111 16 -175 8z"/>
<path d="M1260 1990 c0 -4 -14 -10 -30 -14 -67 -13 -150 -137 -155 -231 -3
-54 31 -138 77 -190 30 -35 92 -72 112 -67 4 2 13 -1 20 -6 26 -21 176 4 176
29 0 5 3 8 8 7 11 -4 45 24 73 62 30 40 59 131 53 164 -2 11 -6 35 -9 51 -4
17 -11 41 -18 55 -14 31 -97 120 -113 120 -6 0 -24 6 -40 14 -29 15 -154 19
-154 6z"/>
</g>
</svg>
